<svg width="49" height="53" viewBox="0 0 49 53" fill="none" xmlns="http://www.w3.org/2000/svg">
<path d="M0.837964 18.8259C-0.429507 15.3227 -0.253413 11.4594 1.3275 8.08603C2.90842 4.71263 5.76466 2.10542 9.26789 0.837954C12.7711 -0.429517 16.6344 -0.253424 20.0078 1.32749C23.3811 2.90841 25.9884 5.76465 27.2558 9.26788C27.3869 9.63028 27.3687 10.0299 27.2052 10.3789C27.0416 10.7279 26.7462 10.9976 26.3838 11.1287C26.0214 11.2598 25.6217 11.2416 25.2727 11.0781C24.9238 10.9145 24.6541 10.619 24.5229 10.2566C23.5177 7.47822 21.4499 5.21292 18.7745 3.95909C16.099 2.70526 13.0351 2.5656 10.2566 3.57084C7.47823 4.57607 5.21293 6.64386 3.9591 9.31931C2.70527 11.9948 2.56561 15.0587 3.57085 17.8371C3.70196 18.1995 3.68375 18.5992 3.5202 18.9481C3.35666 19.2971 3.06119 19.5668 2.69878 19.6979C2.33638 19.8291 1.93674 19.8108 1.58776 19.6473C1.23879 19.4838 0.969082 19.1883 0.837964 18.8259ZM36.0563 17.9312C34.8707 18.3589 33.8417 19.1342 33.1036 20.1559C32.5634 19.2962 31.8233 18.5798 30.9464 18.0679C30.0695 17.556 29.0818 17.2637 28.0675 17.2161C27.0533 17.1684 26.0425 17.3667 25.1214 17.7941C24.2004 18.2214 23.3963 18.8652 22.7779 19.6705L19.9681 11.9046C19.4 10.3342 18.2312 9.05377 16.719 8.34509C15.2068 7.6364 13.475 7.55746 11.9046 8.12564C10.3342 8.69382 9.05379 9.86256 8.3451 11.3748C7.63641 12.887 7.55747 14.6188 8.12565 16.1892L15.2942 36.0026L12.5823 33.8674C11.3014 32.7939 9.64664 32.2731 7.98188 32.4197C6.31712 32.5663 4.77878 33.3683 3.70528 34.6491C2.63178 35.9299 2.11105 37.5847 2.25765 39.2495C2.40425 40.9142 3.20617 42.4526 4.48699 43.5261L15.2842 52.4972C15.5809 52.7325 15.9578 52.8426 16.3345 52.8041C16.7112 52.7656 17.0581 52.5816 17.3011 52.2912C17.5442 52.0009 17.6643 51.6271 17.6359 51.2494C17.6075 50.8718 17.4328 50.5202 17.149 50.2695L6.35863 41.2959C5.67086 40.7165 5.24142 39.8876 5.16478 38.9916C5.08815 38.0956 5.37058 37.2058 5.94997 36.5181C6.52935 35.8303 7.35822 35.4009 8.25424 35.3242C9.15025 35.2476 10.04 35.53 10.7278 36.1094C10.739 36.1207 10.7513 36.131 10.7646 36.1399L17.4906 41.4329C17.7387 41.629 18.044 41.7388 18.3601 41.7457C18.6762 41.7525 18.9859 41.6561 19.2423 41.471C19.4987 41.2859 19.6877 41.0223 19.7806 40.7201C19.8736 40.4178 19.8654 40.0935 19.7574 39.7964L10.8585 15.2004C10.5526 14.3548 10.5951 13.4223 10.9767 12.6081C11.3583 11.7938 12.0477 11.1645 12.8933 10.8585C13.7389 10.5526 14.6715 10.5951 15.4857 10.9767C16.3 11.3583 16.9293 12.0477 17.2353 12.8933L22.8382 28.3797C22.9693 28.7421 23.2391 29.0375 23.588 29.2011C23.937 29.3646 24.3366 29.3828 24.699 29.2517C25.0614 29.1206 25.3569 28.8509 25.5205 28.5019C25.684 28.153 25.7022 27.7533 25.5711 27.3909L24.5823 24.658C24.2764 23.8124 24.3189 22.8799 24.7005 22.0656C25.0821 21.2514 25.7716 20.622 26.6172 20.3161C27.4628 20.0102 28.3953 20.0527 29.2095 20.4343C30.0238 20.8159 30.6531 21.5053 30.9591 22.3509L32.607 26.9057C32.7381 27.2681 33.0078 27.5636 33.3568 27.7271C33.7058 27.8907 34.1054 27.9089 34.4678 27.7778C34.8302 27.6467 35.1257 27.377 35.2892 27.028C35.4528 26.679 35.471 26.2794 35.3399 25.917L35.0103 25.006C34.7044 24.1604 34.7469 23.2279 35.1285 22.4136C35.5101 21.5994 36.1995 20.97 37.0451 20.6641C37.8907 20.3581 38.8232 20.4006 39.6375 20.7822C40.4518 21.1639 41.0811 21.8533 41.387 22.6989L44.3533 30.8975C46.1767 35.9374 45.7543 39.9664 45.7499 40.0041C45.7084 40.3845 45.8187 40.766 46.0569 41.0656C46.295 41.3652 46.6417 41.5588 47.0217 41.6043C47.2459 41.6364 47.4745 41.6138 47.6881 41.5384C47.9426 41.4468 48.1666 41.2861 48.3347 41.0742C48.5028 40.8623 48.6085 40.6077 48.6398 40.339C48.6618 40.1507 49.1591 35.6311 47.0885 29.908L44.1222 21.7093C43.8408 20.9315 43.4089 20.2168 42.8512 19.606C42.2935 18.9951 41.621 18.5002 40.872 18.1493C40.1229 17.7985 39.3121 17.5986 38.4858 17.5612C37.6596 17.5238 36.834 17.6495 36.0563 17.9312Z" fill="white"/>
</svg>
