<svg width="34" height="34" viewBox="0 0 34 34" fill="none" xmlns="http://www.w3.org/2000/svg">
<path d="M17 8.49999V17L22.6666 19.8333M31.1666 17C31.1666 14.2585 30.3711 11.5759 28.8767 9.27756C27.3822 6.97922 25.253 5.16386 22.7472 4.05167C20.2415 2.93948 17.4668 2.57823 14.7598 3.01174C12.0528 3.44525 9.52976 4.65489 7.49663 6.49395C5.46349 8.33301 4.00764 10.7225 3.30564 13.3726C2.60364 16.0227 2.68565 18.8195 3.54172 21.4239C4.39779 24.0283 5.99115 26.3284 8.12855 28.0452C10.266 29.762 12.8556 30.8217 15.5833 31.0958M31.1666 22.6667L23.375 30.4583L19.8333 26.9167" stroke="#FF6A00" stroke-width="1.5" stroke-linecap="round" stroke-linejoin="round"/>
</svg>
