<svg width="34" height="34" viewBox="0 0 34 34" fill="none" xmlns="http://www.w3.org/2000/svg">
<path d="M17 8.49998V17L19.21 18.105M18.7382 31.0604C15.8636 31.4159 12.9491 30.8817 10.3875 29.5298C7.82582 28.1779 5.74011 26.0733 4.41138 23.4996C3.08266 20.9258 2.57479 18.0066 2.9562 15.1354C3.33761 12.2641 4.58998 9.57872 6.54455 7.44112C8.49911 5.30351 11.0619 3.8164 13.8877 3.18016C16.7135 2.54393 19.6663 2.78915 22.3484 3.88278C25.0305 4.97642 27.313 6.86591 28.8882 9.29665C30.4633 11.7274 31.2556 14.5825 31.1582 17.4774M31.1667 25.5L25.5 19.8333L19.8333 25.5M25.5 19.8333V31.1667" stroke="#FF6A00" stroke-width="1.5" stroke-linecap="round" stroke-linejoin="round"/>
</svg>
