<svg width="34" height="34" viewBox="0 0 34 34" fill="none" xmlns="http://www.w3.org/2000/svg">
<path d="M17 8.49999V17L19.8333 18.4167M17.4774 31.1582C14.5825 31.2556 11.7274 30.4633 9.29665 28.8881C6.86591 27.313 4.97642 25.0305 3.88278 22.3484C2.78915 19.6663 2.54393 16.7135 3.18016 13.8877C3.8164 11.0619 5.30351 8.49911 7.44112 6.54455C9.57872 4.58998 12.2641 3.33761 15.1354 2.9562C18.0066 2.57479 20.9258 3.08266 23.4996 4.41138C26.0733 5.74011 28.1779 7.82582 29.5298 10.3875C30.8817 12.9491 31.4159 15.8636 31.0604 18.7382M31.1667 25.5L25.5 31.1667L19.8333 25.5M25.5 31.1667V19.8333" stroke="#FF6A00" stroke-width="1.5" stroke-linecap="round" stroke-linejoin="round"/>
</svg>
