<svg width="20" height="20" viewBox="0 0 20 20" fill="none" xmlns="http://www.w3.org/2000/svg">
<path d="M15.8334 7.50002C15.8334 6.73398 15.6825 5.97543 15.3893 5.2677C15.0962 4.55997 14.6665 3.91691 14.1248 3.37523C13.5831 2.83356 12.9401 2.40388 12.2323 2.11072C11.5246 1.81757 10.7661 1.66669 10 1.66669C9.23398 1.66669 8.47543 1.81757 7.7677 2.11072C7.05997 2.40388 6.41691 2.83356 5.87523 3.37523C5.33356 3.91691 4.90388 4.55997 4.61072 5.2677C4.31757 5.97543 4.16669 6.73398 4.16669 7.50002C4.16669 8.65585 4.50752 9.73085 5.08752 10.6375H5.08085L10 18.3334L14.9192 10.6375H14.9134C15.5141 9.70136 15.8334 8.61237 15.8334 7.50002ZM10 10C9.33698 10 8.70109 9.73663 8.23225 9.26779C7.76341 8.79895 7.50002 8.16306 7.50002 7.50002C7.50002 6.83698 7.76341 6.20109 8.23225 5.73225C8.70109 5.26341 9.33698 5.00002 10 5.00002C10.6631 5.00002 11.2989 5.26341 11.7678 5.73225C12.2366 6.20109 12.5 6.83698 12.5 7.50002C12.5 8.16306 12.2366 8.79895 11.7678 9.26779C11.2989 9.73663 10.6631 10 10 10Z" fill="#333B69"/>
</svg>
